Coordinates
version=1
nRows=38
nColumns=12
inDegrees=yes

Units are S.I. units (second, meters, Newtons, ...)
Angles are in degrees

endheader
time	SC_y	SC_z	SC_x	AC_y	AC_z	AC_x	GH_y	GH_z	GH_yy	EL_x	PS_y
       0.0              -33.27         -3.268          73.71          45.03         -6.254          -16.1         -68.36          24.58           32.5           73.8          57.11
   0.04538              -33.27         -3.263          73.71          45.03         -6.253          -16.1         -68.36          24.58          32.48          73.79          57.13
   0.09076              -33.28         -3.258           73.7          45.03         -6.252          -16.1         -68.36          24.57          32.47          73.78          57.14
    0.1361              -33.28         -3.252           73.7          45.03         -6.251          -16.1         -68.36          24.57          32.46          73.77          57.15
    0.1815              -33.28         -3.246          73.69          45.04          -6.25          -16.1         -68.36          24.56          32.44          73.76          57.17
    0.2269              -33.29          -3.24          73.69          45.04         -6.249          -16.1         -68.36          24.56          32.43          73.75          57.18
    0.2723              -33.29         -3.233          73.68          45.04         -6.248          -16.1         -68.36          24.55          32.41          73.74           57.2
    0.3177              -33.29         -3.226          73.67          45.05         -6.246          -16.1         -68.36          24.54          32.39          73.72          57.22
    0.3631               -33.3         -3.218          73.67          45.05         -6.245          -16.1         -68.35          24.54          32.37          73.71          57.23
    0.4084               -33.3          -3.21          73.66          45.05         -6.244         -16.09         -68.35          24.53          32.35          73.69          57.25
    0.4538              -33.31         -3.201          73.65          45.06         -6.242         -16.09         -68.35          24.52          32.33          73.68          57.28
    0.4992              -33.31         -3.192          73.64          45.06         -6.241         -16.09         -68.35          24.51          32.31          73.66           57.3
    0.5446              -33.32         -3.181          73.63          45.07         -6.239         -16.09         -68.35           24.5          32.28          73.64          57.32
      0.59              -33.32          -3.17          73.62          45.07         -6.237         -16.09         -68.35          24.49          32.26          73.62          57.35
    0.6353              -33.33         -3.158          73.61          45.08         -6.235         -16.09         -68.35          24.48          32.23           73.6          57.38
    0.6807              -33.33         -3.145           73.6          45.08         -6.233         -16.09         -68.34          24.47          32.19          73.58          57.41
    0.7261              -33.34         -3.131          73.59          45.09          -6.23         -16.09         -68.34          24.45          32.16          73.55          57.44
    0.7715              -33.35         -3.116          73.57           45.1         -6.227         -16.09         -68.34          24.44          32.12          73.52          57.48
    0.8169              -33.36         -3.099          73.56          45.11         -6.225         -16.09         -68.34          24.42          32.08          73.49          57.52
    0.8622              -33.37          -3.08          73.54          45.12         -6.221         -16.09         -68.33           24.4          32.03          73.46          57.57
    0.9076              -33.38          -3.06          73.52          45.13         -6.218         -16.09         -68.33          24.39          31.98          73.42          57.62
     0.953              -33.39         -3.038           73.5          45.14         -6.214         -16.08         -68.33          24.36          31.93          73.38          57.67
    0.9984               -33.4         -3.013          73.48          45.15          -6.21         -16.08         -68.32          24.34          31.87          73.34          57.73
     1.044              -33.42         -2.986          73.46          45.16         -6.205         -16.08         -68.32          24.32           31.8          73.29           57.8
     1.089              -33.43         -2.956          73.43          45.18           -6.2         -16.08         -68.32          24.29          31.72          73.23          57.87
     1.135              -33.45         -2.922           73.4          45.19         -6.194         -16.08         -68.31          24.25          31.64          73.17          57.95
      1.18              -33.47         -2.884          73.36          45.21         -6.188         -16.07         -68.31          24.22          31.55           73.1          58.04
     1.225              -33.49         -2.841          73.33          45.23          -6.18         -16.07          -68.3          24.18          31.44          73.02          58.15
     1.271              -33.52         -2.793          73.28          45.25         -6.172         -16.07         -68.29          24.13          31.32          72.94          58.26
     1.316              -33.54         -2.738          73.23          45.28         -6.163         -16.07         -68.28          24.08          31.19          72.84           58.4
     1.361              -33.58         -2.676          73.18          45.31         -6.152         -16.06         -68.27          24.02          31.03          72.72          58.55
     1.407              -33.61         -2.604          73.11          45.35         -6.139         -16.06         -68.26          23.95          30.85          72.59          58.72
     1.452              -33.66         -2.521          73.04          45.39         -6.125         -16.05         -68.25          23.87          30.65          72.44          58.92
     1.498              -33.71         -2.425          72.95          45.43         -6.109         -16.05         -68.24          23.78          30.41          72.27          59.15
     1.543              -33.76         -2.313          72.85          45.49         -6.089         -16.04         -68.22          23.68          30.13          72.06          59.43
     1.588              -33.83          -2.18          72.73          45.55         -6.067         -16.03          -68.2          23.55           29.8          71.82          59.75
     1.634              -33.91         -2.022          72.59          45.63         -6.039         -16.02         -68.18           23.4          29.41          71.54          60.13
     1.679              -34.01         -1.833          72.41          45.72         -6.007         -16.01         -68.15          23.22          28.94          71.19          60.59
